<svg width="50" height="50" viewBox="0 0 50 50" fill="none" xmlns="http://www.w3.org/2000/svg">
<path d="M21.0938 50H7.8125C3.50456 50 0 46.4954 0 42.1875V7.8125C0 3.50456 3.50456 0 7.8125 0H21.0938C25.4017 0 28.9062 3.50456 28.9062 7.8125V13.2812C28.9062 14.36 28.0319 15.2344 26.9531 15.2344C25.8743 15.2344 25 14.36 25 13.2812V7.8125C25 5.65872 23.2475 3.90625 21.0938 3.90625H7.8125C5.65872 3.90625 3.90625 5.65872 3.90625 7.8125V42.1875C3.90625 44.3413 5.65872 46.0938 7.8125 46.0938H21.0938C23.2475 46.0938 25 44.3413 25 42.1875V36.8164C25 35.7376 25.8743 34.8633 26.9531 34.8633C28.0319 34.8633 28.9062 35.7376 28.9062 36.8164V42.1875C28.9062 46.4954 25.4017 50 21.0938 50ZM39.3238 38.0459L48.2719 29.1504C49.3851 28.0437 49.9981 26.5697 49.9981 25.0004C49.9981 23.4306 49.3851 21.9566 48.2719 20.85L39.3238 11.9545C38.2256 10.8627 36.5906 10.5415 35.1589 11.1374C33.733 11.7302 32.8117 13.1092 32.8117 14.65V23.0473H9.76562C8.68683 23.0473 7.8125 23.9216 7.8125 25.0004C7.8125 26.0792 8.68683 26.9535 9.76562 26.9535H32.8117C34.9659 26.9535 36.718 25.201 36.718 23.0473V14.8724L45.5177 23.6202C45.8881 23.9883 46.0918 24.4781 46.0918 25.0004C46.0918 25.5222 45.8881 26.0124 45.5177 26.3802L36.718 35.1284V33.2035C36.718 32.1247 35.8437 31.2504 34.7649 31.2504C33.6861 31.2504 32.8117 32.1247 32.8117 33.2035V35.3504C32.8117 36.8912 33.7334 38.2702 35.1593 38.8634C35.6369 39.0621 36.1374 39.1586 36.6329 39.1586C37.6221 39.1586 38.5921 38.7733 39.3238 38.0459V38.0459Z" fill="#FFCC00"/>
</svg>
