<svg width="39" height="39" viewBox="0 0 39 39" fill="none" xmlns="http://www.w3.org/2000/svg">
<path d="M2.61454 29.2883C4.35835 32.2757 6.7237 34.6411 9.71123 36.3848C12.6993 38.1284 15.9612 39 19.4994 39C23.0372 39 26.3001 38.1284 29.2876 36.3848C32.2753 34.6413 34.6407 32.276 36.3845 29.2883C38.1284 26.3004 39 23.0376 39 19.5C39 15.9623 38.1281 12.6999 36.3847 9.71189C34.641 6.72446 32.2757 4.35912 29.288 2.61524C26.3001 0.871716 23.0375 0 19.4997 0C15.962 0 12.699 0.871716 9.71131 2.61524C6.72379 4.3585 4.35852 6.72446 2.6149 9.71189C0.871548 12.6997 0 15.9624 0 19.5C-8.7738e-05 23.0379 0.871548 26.3009 2.61454 29.2883ZM6.82997 20.795L18.3569 9.26767C18.6783 8.94627 19.0595 8.78495 19.4996 8.78495C19.9397 8.78495 20.3204 8.94618 20.6422 9.26767L32.1696 20.795C32.4913 21.1165 32.6521 21.4974 32.6521 21.9374C32.6521 22.3775 32.4913 22.7587 32.1696 23.0803L29.5799 25.6701C29.2579 25.9918 28.8774 26.1526 28.4371 26.1526C27.997 26.1526 27.6161 25.9917 27.2945 25.6701L19.4996 17.8751L11.7046 25.6701C11.3832 25.9918 11.0022 26.1526 10.562 26.1526C10.1219 26.1526 9.74093 25.9917 9.41953 25.6701L6.82953 23.0803C6.5075 22.7587 6.3468 22.3775 6.3468 21.9374C6.34698 21.4974 6.50768 21.1165 6.82997 20.795Z" fill="#FFCC00"/>
</svg>
