<svg width="39" height="39" viewBox="0 0 39 39" fill="none" xmlns="http://www.w3.org/2000/svg">
<g clip-path="url(#clip0)">
<path d="M9.71174 2.61463C6.7243 4.35843 4.35896 6.72377 2.61525 9.71129C0.871631 12.6993 0 15.9612 0 19.4994C0 23.0373 0.871631 26.3001 2.61525 29.2876C4.35869 32.2753 6.72404 34.6407 9.71174 36.3845C12.6996 38.1284 15.9625 39 19.5 39C23.0378 39 26.3001 38.1281 29.2882 36.3848C32.2756 34.641 34.641 32.2757 36.3848 29.288C38.1284 26.3001 39.0001 23.0375 39.0001 19.4998C39.0001 15.962 38.1284 12.6991 36.3848 9.71138C34.6416 6.72386 32.2756 4.3586 29.2882 2.61498C26.3004 0.871632 23.0376 8.7738e-05 19.5 8.7738e-05C15.9621 0 12.6992 0.871632 9.71174 2.61463ZM18.205 6.83004L29.7324 18.357C30.0538 18.6784 30.2151 19.0596 30.2151 19.4997C30.2151 19.9397 30.0539 20.3204 29.7324 20.6422L18.205 32.1696C17.8835 32.4913 17.5026 32.6521 17.0627 32.6521C16.6225 32.6521 16.2414 32.4913 15.9198 32.1696L13.33 29.58C13.0082 29.2579 12.8474 28.8774 12.8474 28.4371C12.8474 27.997 13.0083 27.6161 13.33 27.2946L21.1249 19.4996L13.33 11.7046C13.0082 11.3832 12.8474 11.0022 12.8474 10.5621C12.8474 10.122 13.0083 9.741 13.33 9.41959L15.9198 6.8296C16.2414 6.50758 16.6225 6.34687 17.0627 6.34687C17.5026 6.34705 17.8835 6.50775 18.205 6.83004Z" fill="#FFCC00"/>
</g>
<defs>
<clipPath id="clip0">
<rect width="39" height="39" fill="white" transform="translate(0 39) rotate(-90)"/>
</clipPath>
</defs>
</svg>
