<svg width="628" height="512" viewBox="0 0 628 512" fill="none" xmlns="http://www.w3.org/2000/svg">
<path d="M105.571 441.452C109.977 445.7 111.859 451.287 110.739 456.778L102.287 498.208C101.478 502.17 97.2773 504.978 92.517 504.978C91.9749 504.978 91.4266 504.941 90.8746 504.867C85.4728 504.131 81.8238 499.957 82.7241 495.544L91.1764 454.113C91.3959 453.038 90.8072 452.281 90.4392 451.924C90.0688 451.567 89.2494 450.969 87.9162 450.969H39.8042C38.471 450.969 37.6516 451.567 37.2812 451.924C36.9108 452.281 36.3245 453.04 36.5416 454.113L44.9938 495.544C45.8941 499.958 42.2451 504.131 36.8433 504.867C31.4452 505.601 26.3329 502.621 25.4326 498.208L16.9804 456.777C15.8605 451.285 17.7445 445.699 22.1503 441.45C26.5561 437.202 32.9895 434.766 39.8042 434.766H56.1887V351.594C56.1887 347.12 60.6288 343.493 66.1042 343.493H211.535C217.012 343.493 221.451 347.12 221.451 351.594C221.451 356.068 217.011 359.695 211.535 359.695H76.021V434.766H87.9174C94.7309 434.766 101.165 437.202 105.571 441.452ZM406.548 480.673H221.452C215.975 480.673 211.536 484.3 211.536 488.774C211.536 493.248 215.977 496.875 221.452 496.875H406.546C412.023 496.875 416.462 493.248 416.462 488.774C416.463 484.3 412.023 480.673 406.548 480.673Z" fill="#876C01"/>
<path d="M464.436 300.935L429.78 414.192C423.893 433.426 402.741 446.919 378.474 446.919H249.519C225.251 446.919 204.099 433.426 198.213 414.192L163.557 300.935C159.384 287.3 172.006 274.092 189.209 274.092H438.781C455.988 274.092 468.609 287.301 464.436 300.935Z" fill="#9F8415"/>
<path d="M590.346 356.408C588.584 358.941 585.292 360.505 581.726 360.505H392.463C379.683 386.317 348.855 403.711 313.999 403.711C275.149 403.711 241.284 382.109 231.861 351.316L224.659 327.778C216.314 300.508 241.56 274.092 275.965 274.092H419.77L398.285 344.303H564.286L472.549 218.39C464.792 222.039 455.802 224.136 446.211 224.136H181.791C152.584 224.136 128.906 204.792 128.906 180.93V159.327C128.906 75.808 211.775 8.104 314.001 8.104C416.226 8.104 499.095 75.809 499.095 159.327V180.93C499.095 191.007 494.86 200.272 487.781 207.621L590.247 348.263C592.07 350.764 592.108 353.875 590.346 356.408Z" fill="#80680A"/>
<path d="M618.083 328.1C618.083 345.996 600.326 360.505 578.42 360.505C556.513 360.505 538.756 345.997 538.756 328.1C538.756 310.204 556.513 295.695 578.42 295.695C600.326 295.695 618.083 310.204 618.083 328.1ZM49.5774 295.695C27.671 295.695 9.91406 310.203 9.91406 328.1C9.91406 345.997 27.671 360.505 49.5774 360.505C71.4838 360.505 89.2408 345.997 89.2408 328.1C89.2408 310.204 71.4838 295.695 49.5774 295.695Z" fill="#8C7000"/>
<path d="M62.8016 328.1C62.8016 334.066 56.8822 338.902 49.5805 338.902C42.2788 338.902 36.3594 334.067 36.3594 328.1C36.3594 322.133 42.2788 317.298 49.5805 317.298C56.8822 317.298 62.8016 322.135 62.8016 328.1ZM578.423 317.299C571.121 317.299 565.202 322.134 565.202 328.101C565.202 334.068 571.121 338.903 578.423 338.903C585.725 338.903 591.644 334.068 591.644 328.101C591.644 322.135 585.725 317.299 578.423 317.299Z" fill="#6B95A0"/>
<path d="M244.589 381.029V382.109C244.589 386.583 240.149 390.21 234.673 390.21C229.197 390.21 224.758 386.583 224.758 382.109V381.029C224.758 376.555 229.198 372.928 234.673 372.928C240.149 372.928 244.589 376.555 244.589 381.029Z" fill="black"/>
<path d="M284.253 381.029V382.109C284.253 386.583 279.813 390.21 274.337 390.21C268.861 390.21 264.422 386.583 264.422 382.109V381.029C264.422 376.555 268.862 372.928 274.337 372.928C279.814 372.928 284.253 376.555 284.253 381.029Z" fill="#FFCC00"/>
<path d="M390.022 381.029V382.109C390.022 386.583 385.582 390.21 380.107 390.21C374.63 390.21 370.191 386.583 370.191 382.109V381.029C370.191 376.555 374.632 372.928 380.107 372.928C385.582 372.928 390.022 376.555 390.022 381.029Z" fill="#FFCC00"/>
<path d="M326.831 403.101V404.181C326.831 408.655 322.391 412.282 316.916 412.282C311.439 412.282 307 408.655 307 404.181V403.101C307 398.627 311.44 395 316.916 395C322.391 395 326.831 398.627 326.831 403.101Z" fill="black"/>
<path d="M261.116 349.703H234.674C227.373 349.703 221.453 344.877 221.453 338.924V317.276C221.453 311.323 227.373 306.497 234.674 306.497H261.116C268.418 306.497 274.338 311.323 274.338 317.276V338.924C274.338 344.878 268.418 349.703 261.116 349.703Z" fill="#CFDFE2"/>
<path d="M195.012 121.519C195.012 91.692 224.609 67.511 261.117 67.511C297.626 67.511 327.223 91.691 327.223 121.519C327.223 151.347 297.626 175.527 261.117 175.527C224.609 175.527 195.012 151.347 195.012 121.519Z" fill="#29383C"/>
<path d="M221.453 121.519C221.453 103.623 239.21 89.114 261.116 89.114C283.023 89.114 300.78 103.622 300.78 121.519C300.78 139.416 283.023 153.924 261.116 153.924C239.21 153.924 221.453 139.416 221.453 121.519Z" fill="#CFDFE2"/>
<path d="M261.117 121.519C261.117 112.57 269.996 105.316 280.948 105.316C291.9 105.316 300.779 112.57 300.779 121.519C300.779 130.468 291.9 137.722 280.948 137.722C269.996 137.722 261.117 130.468 261.117 121.519Z" fill="white"/>
<path d="M524.541 41.321C578.753 85.613 578.753 157.425 524.541 201.717C470.328 246.009 382.431 246.009 328.218 201.717C274.005 157.425 274.005 85.613 328.218 41.321C382.431 -2.97101 470.328 -2.97101 524.541 41.321Z" fill="#FFCC00"/>
<path d="M518.928 121.519C518.928 163.278 477.493 197.13 426.38 197.13C375.267 197.13 333.832 163.278 333.832 121.519C333.832 79.76 375.267 45.908 426.38 45.908C477.493 45.908 518.928 79.761 518.928 121.519Z" fill="#C3E4ED"/>
<path d="M481.802 60.962C496.232 69.792 507.389 81.988 513.558 96.121L395.29 192.746C377.993 187.706 363.063 178.591 352.257 166.801L481.802 60.962ZM339.199 146.918C340.748 150.466 342.608 153.893 344.76 157.174L470.019 54.836C466.002 53.078 461.809 51.559 457.466 50.294L339.199 146.918Z" fill="#DCF3F9"/>
<path d="M426.79 64.98C441.393 64.98 453.232 74.652 453.232 86.583C453.232 98.514 441.395 108.186 426.79 108.186C412.186 108.186 400.348 98.514 400.348 86.583C400.348 74.652 412.188 64.98 426.79 64.98Z" fill="white"/>
<path d="M416.463 500.928C416.463 505.402 412.026 509.029 406.548 509.029H221.452C215.974 509.029 211.537 505.402 211.537 500.928C211.537 496.454 215.974 492.827 221.452 492.827H406.547C412.024 492.826 416.463 496.453 416.463 500.928ZM628 328.101C628 350.436 605.76 368.607 578.421 368.607C559.434 368.607 542.906 359.842 534.58 347.004H453.043C452.901 347.006 452.756 347.006 452.614 347.004H340.442C334.964 347.004 330.527 343.378 330.527 338.903C330.527 334.428 334.964 330.802 340.442 330.802H445.08L454.819 298.971C456.062 294.91 454.966 290.687 451.814 287.388C448.659 284.087 443.911 282.195 438.788 282.195H189.213C184.089 282.195 179.341 284.088 176.187 287.388C173.034 290.687 171.938 294.911 173.182 298.971L207.839 412.226C212.628 427.884 229.771 438.818 249.523 438.818H378.478C398.23 438.818 415.373 427.884 420.163 412.226L436.591 358.54C437.921 354.2 443.302 351.567 448.618 352.645C453.931 353.73 457.161 358.129 455.832 362.47L439.404 416.156C432.401 439.038 407.349 455.019 378.478 455.019H249.522C220.651 455.019 195.599 439.037 188.596 416.154L168.346 349.972H93.4199C86.583 360.513 74.2132 368.31 59.4944 370.762V441.786H73.6342C80.4478 441.786 86.8836 444.223 91.2881 448.471C95.694 452.719 97.578 458.305 96.4581 463.795L88.0046 505.227C87.1963 509.189 82.9966 511.997 78.2351 511.997C77.6941 511.997 77.1459 511.961 76.5927 511.885C71.1921 511.15 67.5419 506.976 68.4422 502.562L76.8944 461.131C77.114 460.059 76.5265 459.299 76.1573 458.942C75.7868 458.585 74.9675 457.987 73.6342 457.987H25.5235C24.1903 457.987 23.3709 458.585 23.0005 458.942C22.6313 459.299 22.0438 460.058 22.2633 461.132L30.7156 502.562C31.6159 506.976 27.9656 511.15 22.5651 511.885C17.1437 512.624 12.0547 509.64 11.1544 505.227L2.70089 463.796C1.58104 458.303 3.46504 452.718 7.87085 448.47C12.2742 444.222 18.71 441.785 25.5248 441.785H39.6646V370.762C17.0603 366.999 0 350.632 0 331.072C0 308.737 22.24 290.566 49.5789 290.566C76.9177 290.566 99.1578 308.736 99.1578 331.072C99.1578 331.981 99.1222 332.879 99.0498 333.772H163.389L153.941 302.901C151.207 293.965 153.617 284.676 160.556 277.416C167.494 270.156 177.939 265.992 189.213 265.992H438.787C450.06 265.992 460.507 270.157 467.444 277.416C474.383 284.677 476.793 293.966 474.059 302.901L465.521 330.801H528.951C528.879 329.907 528.843 329.008 528.843 328.101C528.843 314.886 536.63 303.128 548.65 295.731L499.001 227.583C457.745 246.422 407.752 247.976 365.058 232.236H181.79C147.163 232.236 118.99 209.22 118.99 180.928V159.325C118.99 71.473 206.471 0.00100708 314 0.00100708C334.555 0.00100708 354.776 2.60301 374.168 7.73901C427.087 -8.39499 489.072 0.887005 531.553 35.592C589.545 82.973 589.545 160.065 531.553 207.446C526.506 211.569 521.186 215.332 515.636 218.737L566.642 288.75C570.418 287.994 574.364 287.595 578.421 287.595C605.76 287.595 628 305.766 628 328.101ZM332.878 216.034C328.85 213.369 324.951 210.505 321.205 207.446C302.698 192.324 289.667 173.921 282.931 153.841C276.194 156.541 268.742 157.975 261.116 157.975C233.777 157.975 211.537 139.804 211.537 117.469C211.537 95.134 233.777 76.963 261.116 76.963C269.733 76.963 278.155 78.82 285.546 82.239C292.784 64.868 304.858 48.949 321.206 35.592C329.177 29.08 337.837 23.462 346.993 18.74C336.171 17.053 325.142 16.203 314 16.203C217.406 16.203 138.821 80.408 138.821 159.325V180.928C138.821 200.286 158.097 216.033 181.79 216.033L332.878 216.034ZM277.642 121.519C277.642 113.824 278.512 106.237 280.214 98.835C274.878 95.159 268.22 93.165 261.117 93.165C244.715 93.165 231.369 104.068 231.369 117.468C231.369 130.868 244.714 141.771 261.117 141.771C267.523 141.771 273.723 140.085 278.83 136.987C278.041 131.899 277.642 126.733 277.642 121.519ZM517.527 195.989C541.876 176.098 555.284 149.65 555.284 121.519C555.284 93.388 541.876 66.941 517.527 47.049C493.181 27.156 460.81 16.202 426.379 16.202C409.83 16.202 393.76 18.733 378.826 23.569C378.334 23.771 377.823 23.939 377.297 24.073C361.749 29.3 347.475 37.043 335.231 47.048C310.883 66.939 297.473 93.387 297.473 121.518C297.473 149.649 310.882 176.096 335.231 195.988C385.488 237.051 467.27 237.051 517.527 195.989ZM79.3267 331.072C79.3267 317.672 65.9817 306.769 49.5789 306.769C33.1761 306.769 19.8311 317.671 19.8311 331.072C19.8311 344.472 33.1761 355.375 49.5789 355.375C65.9817 355.375 79.3267 344.472 79.3267 331.072ZM608.169 328.101C608.169 314.701 594.824 303.798 578.421 303.798C574.151 303.798 570.088 304.537 566.414 305.866C566.322 305.902 566.228 305.936 566.133 305.968C555.845 309.796 548.673 318.276 548.673 328.1C548.673 330.884 549.25 333.558 550.307 336.052C550.351 336.148 550.392 336.244 550.432 336.34C554.573 345.697 565.556 352.404 578.42 352.404C594.823 352.405 608.169 341.502 608.169 328.101ZM528.842 121.519C528.842 143.88 518.183 164.902 498.832 180.713C479.479 196.525 453.748 205.232 426.379 205.232C399.009 205.232 373.28 196.524 353.926 180.713C334.574 164.902 323.916 143.88 323.916 121.519C323.916 99.158 334.574 78.136 353.926 62.325C373.277 46.514 399.009 37.806 426.379 37.806C453.748 37.806 479.478 46.514 498.832 62.325C518.186 78.136 528.842 99.159 528.842 121.519ZM509.01 121.519C509.01 103.487 500.415 86.533 484.806 73.783C469.202 61.03 448.45 54.008 426.379 54.008C404.308 54.008 383.556 61.03 367.952 73.782C352.342 86.532 343.748 103.486 343.748 121.519C343.748 139.552 352.342 156.505 367.952 169.255C383.557 182.008 404.308 189.029 426.379 189.029C448.45 189.029 469.202 182.007 484.806 169.255C500.415 156.506 509.01 139.552 509.01 121.519ZM261.116 298.397C273.873 298.397 284.252 306.877 284.252 317.3V338.903C284.252 349.326 273.872 357.806 261.116 357.806H234.673C221.916 357.806 211.537 349.326 211.537 338.903V317.3C211.537 306.877 221.917 298.397 234.673 298.397H261.116ZM261.116 314.598H234.673C232.851 314.598 231.368 315.808 231.368 317.298V338.901C231.368 340.391 232.849 341.601 234.673 341.601H261.116C262.938 341.601 264.421 340.391 264.421 338.901V317.298C264.421 315.81 262.939 314.598 261.116 314.598Z" fill="black"/>
</svg>
