<svg width="39" height="39" viewBox="0 0 39 39" fill="none" xmlns="http://www.w3.org/2000/svg">
<path d="M36.3854 9.71174C34.6416 6.7243 32.2762 4.35896 29.2887 2.61525C26.3007 0.871631 23.0388 0 19.5006 0C15.9627 0 12.6999 0.871631 9.71236 2.61525C6.72466 4.35869 4.35931 6.72404 2.61552 9.71174C0.871631 12.6996 0 15.9625 0 19.5C0 23.0378 0.871898 26.3001 2.61525 29.2882C4.35896 32.2756 6.7243 34.641 9.712 36.3848C12.6999 38.1284 15.9625 39.0001 19.5002 39.0001C23.038 39.0001 26.3009 38.1284 29.2886 36.3848C32.2761 34.6416 34.6414 32.2756 36.385 29.2882C38.1284 26.3004 38.9999 23.0376 38.9999 19.5C39 15.9621 38.1284 12.6992 36.3854 9.71174ZM32.17 18.205L20.643 29.7324C20.3216 30.0538 19.9404 30.2151 19.5003 30.2151C19.0603 30.2151 18.6796 30.0539 18.3578 29.7324L6.8304 18.205C6.50873 17.8835 6.34785 17.5026 6.34785 17.0627C6.34785 16.6225 6.50873 16.2414 6.8304 15.9198L9.42004 13.33C9.74206 13.0082 10.1226 12.8474 10.5629 12.8474C11.003 12.8474 11.3839 13.0083 11.7054 13.33L19.5004 21.1249L27.2954 13.33C27.6168 13.0082 27.9978 12.8474 28.4379 12.8474C28.878 12.8474 29.259 13.0083 29.5804 13.33L32.1704 15.9198C32.4924 16.2414 32.6531 16.6225 32.6531 17.0627C32.6529 17.5026 32.4922 17.8835 32.17 18.205Z" fill="#FFCC00"/>
</svg>
