<svg width="40" height="37" viewBox="0 0 40 37" fill="none" xmlns="http://www.w3.org/2000/svg">
<path d="M28.8266 21.963C26.2266 24.363 26.2266 26.763 23.6266 26.763C21.0266 26.763 18.4266 24.363 15.8266 21.963C13.2266 19.563 10.6266 17.163 10.6266 14.763C10.6266 12.363 13.2266 12.363 15.8266 9.96304C18.4266 7.56304 10.6266 0.363037 8.02656 0.363037C5.42656 0.363037 0.226562 7.56304 0.226562 7.56304C0.226562 12.363 5.56826 22.0938 10.6266 26.763C15.6849 31.4322 26.2266 36.363 31.4266 36.363C31.4266 36.363 39.2266 31.563 39.2266 29.163C39.2266 26.763 31.4266 19.563 28.8266 21.963Z" fill="#FFCC00"/>
</svg>
