<svg width="39" height="39" viewBox="0 0 39 39" fill="none" xmlns="http://www.w3.org/2000/svg">
<g clip-path="url(#clip0)">
<path d="M29.2883 36.3854C32.2757 34.6416 34.641 32.2762 36.3848 29.2887C38.1284 26.3007 39 23.0388 39 19.5006C39 15.9627 38.1284 12.6999 36.3848 9.71236C34.6413 6.72466 32.276 4.35931 29.2883 2.61552C26.3004 0.871631 23.0375 0 19.5 0C15.9622 0 12.6999 0.871898 9.71182 2.61525C6.72439 4.35896 4.35904 6.7243 2.61516 9.712C0.871632 12.6999 -8.7738e-05 15.9625 -8.7738e-05 19.5002C-8.7738e-05 23.038 0.871632 26.3009 2.61516 29.2886C4.35842 32.2761 6.72439 34.6414 9.71182 36.385C12.6996 38.1284 15.9624 38.9999 19.5 38.9999C23.0379 39 26.3008 38.1284 29.2883 36.3854ZM20.795 32.17L9.26761 20.643C8.9462 20.3216 8.78488 19.9404 8.78488 19.5003C8.78488 19.0603 8.94611 18.6796 9.26761 18.3578L20.795 6.8304C21.1165 6.50873 21.4974 6.34785 21.9373 6.34785C22.3775 6.34785 22.7586 6.50873 23.0802 6.8304L25.67 9.42004C25.9918 9.74206 26.1526 10.1226 26.1526 10.5629C26.1526 11.003 25.9917 11.3839 25.67 11.7054L17.8751 19.5004L25.67 27.2954C25.9918 27.6168 26.1526 27.9978 26.1526 28.4379C26.1526 28.878 25.9917 29.259 25.67 29.5804L23.0802 32.1704C22.7586 32.4924 22.3775 32.6531 21.9373 32.6531C21.4974 32.6529 21.1165 32.4922 20.795 32.17Z" fill="#FFCC00"/>
</g>
<defs>
<clipPath id="clip0">
<rect width="39" height="39" fill="white" transform="translate(39) rotate(90)"/>
</clipPath>
</defs>
</svg>
